<?xml version="1.0" encoding="UTF-8" standalone="no"?>
<!-- Created with Inkscape (http://www.inkscape.org/) -->

<svg
   width="210mm"
   height="297mm"
   viewBox="0 0 210 297"
   version="1.1"
   id="svg1"
   inkscape:version="1.4.2 (f4327f4, 2025-05-13)"
   sodipodi:docname="overload.svg"
   xmlns:inkscape="http://www.inkscape.org/namespaces/inkscape"
   xmlns:sodipodi="http://sodipodi.sourceforge.net/DTD/sodipodi-0.dtd"
   xmlns="http://www.w3.org/2000/svg"
   xmlns:svg="http://www.w3.org/2000/svg">
  <sodipodi:namedview
     id="namedview1"
     pagecolor="#ffffff"
     bordercolor="#000000"
     borderopacity="0.25"
     inkscape:showpageshadow="2"
     inkscape:pageopacity="0.0"
     inkscape:pagecheckerboard="0"
     inkscape:deskcolor="#d1d1d1"
     inkscape:document-units="mm"
     inkscape:zoom="1.3772587"
     inkscape:cx="317.29696"
     inkscape:cy="418.58512"
     inkscape:window-width="1920"
     inkscape:window-height="991"
     inkscape:window-x="-9"
     inkscape:window-y="-9"
     inkscape:window-maximized="1"
     inkscape:current-layer="layer1" />
  <defs
     id="defs1" />
  <g
     inkscape:label="Calque 1"
     inkscape:groupmode="layer"
     id="layer1">
    <path
       id="text1"
       style="font-size:7.05556px;font-family:'MV Boli';-inkscape-font-specification:'MV Boli, Normal';stroke-width:0.295841"
       d="M 71.098503 80.289673 C 70.954689 80.289673 70.846912 80.328386 70.775008 80.405428 C 70.705675 80.482471 70.651788 80.599142 70.613261 80.755794 C 70.597854 80.822564 70.590007 80.885347 70.590007 80.944413 C 70.590007 81.006047 70.594185 81.061501 70.601892 81.110295 C 70.609592 81.159087 70.613261 81.212975 70.613261 81.272042 C 70.613261 81.349086 70.608031 81.42338 70.597758 81.495284 C 70.590051 81.56462 70.578541 81.6342 70.563135 81.70354 C 70.547721 81.772877 70.530982 81.84194 70.513009 81.911279 C 70.495035 81.980617 70.477245 82.053861 70.459265 82.130904 C 70.312886 82.718993 70.161165 83.30077 70.004513 83.876017 C 69.847861 84.448698 69.696657 85.028908 69.550277 85.616996 C 69.54257 85.65038 69.535773 85.68648 69.53064 85.725 C 69.525506 85.760951 69.523405 85.79705 69.523405 85.833004 C 69.523405 85.922884 69.544857 86.002409 69.588517 86.071749 C 69.632175 86.138517 69.71065 86.172001 69.823645 86.172001 C 69.887844 86.172001 69.946962 86.15265 70.000895 86.114124 C 70.057392 86.078176 70.103435 86.027952 70.139388 85.963745 C 70.147095 85.932928 70.158605 85.886886 70.174011 85.825252 C 70.191985 85.763619 70.211342 85.694038 70.231889 85.616996 C 70.255002 85.539954 70.278022 85.457815 70.301135 85.3705 C 70.326815 85.283186 70.351402 85.199996 70.374516 85.120386 C 70.397622 85.040773 70.418031 84.967529 70.436011 84.900761 C 70.453991 84.83399 70.468112 84.781151 70.478385 84.742631 L 70.786894 83.529268 L 70.786894 83.583012 C 70.786894 83.662617 70.804684 83.734813 70.840637 83.799019 C 70.87659 83.863217 70.934143 83.909259 71.013753 83.937512 C 71.072819 83.927246 71.133504 83.915736 71.195138 83.902889 C 71.25934 83.887482 71.331018 83.879635 71.410628 83.879635 L 71.468506 83.879635 C 71.602045 83.879635 71.735458 83.909451 71.868998 83.968518 C 72.002538 84.025016 72.132286 84.101925 72.258122 84.199512 C 72.383957 84.297098 72.502195 84.412721 72.612622 84.546261 C 72.725617 84.679801 72.828163 84.82106 72.920614 84.970007 C 73.005364 85.108683 73.075994 85.246277 73.132487 85.382385 C 73.191548 85.518493 73.248052 85.640396 73.301986 85.748254 C 73.355915 85.856116 73.412418 85.943486 73.471484 86.010254 C 73.53055 86.077022 73.605361 86.109989 73.695243 86.109989 C 73.754311 86.109989 73.809248 86.097429 73.860608 86.071749 C 73.911969 86.043505 73.955913 86.007405 73.991866 85.963745 C 74.030386 85.920092 74.059686 85.871434 74.080233 85.817501 C 74.103346 85.763575 74.114856 85.709687 74.114856 85.655754 C 74.114856 85.586416 74.099677 85.521016 74.068864 85.459383 C 73.948165 85.205144 73.830976 84.984361 73.717981 84.796891 C 73.607554 84.609422 73.499778 84.447241 73.394486 84.311133 C 73.291764 84.172457 73.191833 84.055785 73.094246 83.960767 C 72.999227 83.865745 72.904011 83.784655 72.808993 83.717887 C 72.716542 83.651119 72.625507 83.594615 72.535624 83.548389 C 72.445742 83.499598 72.355755 83.453556 72.265873 83.409896 C 72.29669 83.386788 72.352145 83.353304 72.431755 83.309644 C 72.513933 83.265985 72.604968 83.218377 72.705123 83.167017 C 72.807846 83.113083 72.911958 83.058145 73.017249 83.001652 C 73.12254 82.94259 73.214624 82.886087 73.294234 82.832153 C 73.497112 82.698614 73.674468 82.557355 73.825985 82.408407 C 73.980068 82.25689 74.101971 82.095225 74.191854 81.923165 C 74.271464 81.771648 74.311226 81.617313 74.311226 81.460661 C 74.311226 81.414435 74.307558 81.366827 74.299858 81.318034 C 74.294718 81.269241 74.283208 81.215353 74.265234 81.156287 C 74.229279 81.035587 74.175391 80.933041 74.103487 80.848295 C 74.031581 80.760981 73.947875 80.687737 73.852856 80.62867 C 73.760406 80.569607 73.660475 80.523564 73.552616 80.490177 C 73.444758 80.454224 73.338031 80.427025 73.232739 80.409045 C 73.127449 80.391065 73.025952 80.379556 72.928365 80.374422 C 72.830776 80.369289 72.746021 80.366671 72.674117 80.366671 C 72.543145 80.366671 72.434319 80.369289 72.347005 80.374422 C 72.262263 80.379562 72.187453 80.384792 72.123246 80.389925 C 72.061613 80.395065 72.006675 80.400295 71.957882 80.405428 C 71.909086 80.410561 71.858863 80.41318 71.807503 80.41318 C 71.743307 80.41318 71.678957 80.406382 71.61475 80.393542 C 71.553117 80.380709 71.492949 80.36553 71.433883 80.34755 C 71.379949 80.332144 71.324495 80.319066 71.268001 80.308793 C 71.214073 80.295946 71.157569 80.289673 71.098503 80.289673 z M 64.565568 80.478292 C 64.419186 80.478292 64.312459 80.502879 64.245691 80.551672 C 64.194329 80.587625 64.157183 80.630003 64.13407 80.678796 C 64.110956 80.727592 64.094217 80.764737 64.083944 80.790417 C 64.045423 80.903412 64.001996 81.02165 63.953202 81.144918 C 63.906981 81.265617 63.851528 81.396415 63.787321 81.537659 C 63.725688 81.678903 63.655058 81.833238 63.575448 82.000163 C 63.498406 82.164519 63.411035 82.348156 63.313448 82.551034 C 63.210725 82.759048 63.095103 82.988726 62.966699 83.240397 C 62.838296 83.492068 62.694938 83.748949 62.535718 84.010893 C 62.376498 84.272836 62.197575 84.532332 61.999833 84.78914 C 61.80466 85.045946 61.589107 85.28452 61.352844 85.505375 C 61.257822 85.477126 61.181961 85.414343 61.125468 85.316756 C 61.068967 85.216601 61.02554 85.100979 60.994727 84.970007 C 60.963913 84.839035 60.943505 84.701441 60.933232 84.557629 C 60.922958 84.411249 60.917729 84.279402 60.917729 84.161271 C 60.917729 83.7889 60.924002 83.448314 60.936849 83.140145 C 60.952256 82.831976 60.967951 82.560969 60.983358 82.327275 C 60.998771 82.09358 61.012892 81.898433 61.025732 81.741781 C 61.041139 81.585131 61.04847 81.469508 61.04847 81.395032 C 61.04847 81.310285 61.042196 81.22553 61.02935 81.140784 C 61.019076 81.053467 60.997107 80.976558 60.963721 80.90979 C 60.930335 80.840455 60.882727 80.783951 60.821094 80.740291 C 60.75946 80.696631 60.677321 80.674662 60.574597 80.674662 C 60.502693 80.674662 60.443574 80.690358 60.397347 80.721171 C 60.351124 80.74942 60.313979 80.788133 60.285726 80.836926 C 60.260039 80.883152 60.240688 80.93704 60.227848 80.998674 C 60.217575 81.057734 60.212862 81.118952 60.212862 81.183158 C 60.212862 81.231955 60.21548 81.276947 60.220614 81.318034 C 60.228314 81.35912 60.235645 81.401498 60.243351 81.445158 C 60.251058 81.486247 60.257338 81.53124 60.262472 81.580033 C 60.270178 81.626259 60.274357 81.680147 60.274357 81.741781 L 60.274357 81.926782 C 60.274357 82.086003 60.272756 82.252898 60.270223 82.427527 C 60.270223 82.599587 60.269139 82.769098 60.266606 82.936023 C 60.264006 83.100379 60.261387 83.258379 60.258854 83.409896 C 60.256254 83.561412 60.253636 83.69744 60.251103 83.81814 C 60.248503 83.936271 60.245885 84.034103 60.243351 84.111145 L 60.243351 84.246021 C 60.243351 84.36672 60.248581 84.489672 60.258854 84.615507 C 60.269121 84.738775 60.284816 84.860677 60.305363 84.981376 C 60.32591 85.099508 60.351548 85.214081 60.382361 85.324508 C 60.415744 85.434934 60.455507 85.536431 60.501733 85.628882 C 60.537684 85.703356 60.577446 85.780265 60.621106 85.859875 C 60.664762 85.939487 60.716035 86.012732 60.775102 86.0795 C 60.836735 86.143699 60.906316 86.197588 60.983358 86.241248 C 61.0604 86.284908 61.149869 86.306877 61.252592 86.306877 C 61.319367 86.306877 61.3811 86.295367 61.437594 86.272253 C 61.494091 86.251713 61.54693 86.223457 61.595723 86.187504 C 61.644513 86.151554 61.690556 86.111275 61.734216 86.067615 C 61.777872 86.021389 61.821814 85.974298 61.865474 85.925505 C 62.145394 85.604495 62.369842 85.329306 62.539335 85.100749 C 62.708827 84.869622 62.84224 84.681272 62.939827 84.534892 C 63.050254 84.370535 63.162213 84.190563 63.275208 83.99539 C 63.390772 83.797648 63.504828 83.59204 63.617822 83.37889 C 63.730818 83.163172 63.84121 82.945004 63.949068 82.72415 C 64.056928 82.500728 64.16104 82.282559 64.261194 82.069409 C 64.366485 81.843419 64.467981 81.630482 64.565568 81.430172 C 64.663153 81.227294 64.741629 81.047322 64.800696 80.89067 C 64.813542 80.862423 64.819816 80.831556 64.819816 80.798169 C 64.822349 80.762216 64.823433 80.731348 64.823433 80.705668 C 64.823433 80.633767 64.803025 80.57883 64.761938 80.540304 C 64.72085 80.499217 64.655451 80.478292 64.565568 80.478292 z M 76.703328 80.547538 C 76.600605 80.547538 76.50957 80.583638 76.42996 80.655542 C 76.352915 80.727447 76.299026 80.823713 76.268213 80.944413 C 76.263073 81.070249 76.236391 81.239759 76.187598 81.452909 C 76.141372 81.666059 76.077023 81.91143 75.994845 82.188782 C 75.915234 82.466133 75.822633 82.768007 75.717342 83.094153 C 75.612051 83.420298 75.50166 83.760369 75.386096 84.114762 L 75.170605 84.769503 C 75.155185 84.813164 75.141064 84.863388 75.128231 84.919881 C 75.115391 84.976377 75.103364 85.034447 75.093091 85.093514 C 75.082811 85.152577 75.073919 85.209079 75.066219 85.263013 C 75.061086 85.316944 75.058468 85.364036 75.058468 85.405123 C 75.058468 85.487304 75.072589 85.564729 75.100842 85.636633 C 75.129093 85.708541 75.176701 85.765045 75.243469 85.806132 C 75.317941 85.852353 75.377059 85.894729 75.420719 85.933256 C 75.466941 85.971771 75.511935 86.004738 75.555595 86.032992 C 75.599248 86.058672 75.647906 86.079597 75.701839 86.095003 C 75.758337 86.11041 75.835763 86.117741 75.93335 86.117741 C 76.01296 86.117741 76.111324 86.102562 76.229456 86.071749 C 76.350154 86.038365 76.477288 85.998603 76.610828 85.952376 C 76.744367 85.90615 76.878297 85.857492 77.011837 85.806132 C 77.147945 85.754768 77.270896 85.708209 77.381323 85.667122 C 77.40444 85.659416 77.444202 85.645294 77.500696 85.624748 C 77.55976 85.601641 77.626724 85.576003 77.7012 85.54775 C 77.775674 85.519497 77.855199 85.490196 77.939945 85.459383 C 78.024691 85.42599 78.106831 85.393562 78.186442 85.362748 C 78.266054 85.331935 78.339299 85.303679 78.406067 85.277999 C 78.475408 85.252319 78.530862 85.231911 78.571948 85.216504 C 78.605334 85.206237 78.647712 85.191059 78.699072 85.170512 C 78.75043 85.149972 78.802752 85.125385 78.856685 85.097131 C 78.910615 85.066312 78.961888 85.031782 79.010681 84.993262 C 79.059478 84.952172 79.099757 84.90718 79.13057 84.858386 C 79.14085 84.830134 79.149742 84.795603 79.157442 84.754517 C 79.167716 84.710855 79.172945 84.660632 79.172945 84.604138 C 79.172945 84.570757 79.16876 84.537273 79.16106 84.503886 C 79.15336 84.470499 79.140799 84.441199 79.122819 84.415519 C 79.107406 84.389839 79.084386 84.368914 79.053573 84.353507 C 79.02532 84.338101 78.990273 84.33077 78.949186 84.33077 C 78.92608 84.33077 78.900442 84.335483 78.872188 84.345756 C 78.846508 84.353469 78.815641 84.363929 78.779687 84.376762 C 78.571674 84.464076 78.408959 84.53209 78.290828 84.580884 C 78.172695 84.629681 78.077479 84.669443 78.005575 84.700256 C 77.936237 84.728503 77.877118 84.75309 77.828324 84.773637 C 77.782097 84.794177 77.725594 84.818247 77.658826 84.846501 C 77.53299 84.90043 77.394347 84.9585 77.24283 85.020133 C 77.093883 85.079201 76.943729 85.134138 76.792212 85.185498 C 76.640695 85.234291 76.494206 85.276669 76.352962 85.312622 C 76.211718 85.346009 76.08825 85.362748 75.982959 85.362748 C 75.939299 85.362748 75.909999 85.351238 75.894592 85.328125 C 75.879186 85.302444 75.871338 85.268959 75.871338 85.227873 C 75.871338 85.153399 75.884415 85.056084 75.910095 84.935384 C 75.935775 84.814685 75.966643 84.687552 76.002596 84.554012 L 76.071842 84.292013 C 76.138612 84.04291 76.214472 83.788644 76.299219 83.529268 C 76.383965 83.269893 76.468721 83.011963 76.553467 82.755155 C 76.640781 82.49578 76.725537 82.239948 76.807715 81.988277 C 76.889893 81.736606 76.960522 81.492802 77.019588 81.256539 C 77.027288 81.223152 77.033575 81.188623 77.038708 81.152669 C 77.043842 81.116719 77.04646 81.076957 77.04646 81.033297 C 77.04646 80.974227 77.040173 80.916157 77.02734 80.859664 C 77.014506 80.800599 76.993581 80.748277 76.965328 80.702051 C 76.939648 80.655829 76.905118 80.618683 76.861458 80.59043 C 76.817801 80.562176 76.764962 80.547538 76.703328 80.547538 z M 88.937724 80.547538 C 88.734846 80.547538 88.530803 80.597762 88.325358 80.697917 C 88.119912 80.798072 87.919535 80.930436 87.724361 81.094792 C 87.529188 81.25658 87.340321 81.441266 87.157987 81.64928 C 86.978222 81.857294 86.810277 82.070749 86.653625 82.289034 C 86.499541 82.504752 86.359331 82.715074 86.233496 82.92052 C 86.10766 83.125966 86.002499 83.306987 85.917753 83.463639 C 85.81503 83.638269 85.718765 83.814576 85.628882 83.991772 C 85.541565 84.166401 85.464656 84.340625 85.397888 84.515255 C 85.333692 84.687315 85.282419 84.858392 85.243892 85.027885 C 85.205366 85.194809 85.186015 85.356474 85.186015 85.513127 C 85.186015 85.574759 85.191244 85.642773 85.201518 85.717249 C 85.211791 85.791718 85.229581 85.861298 85.255261 85.925505 C 85.283505 85.987135 85.319605 86.039458 85.363265 86.083118 C 85.409493 86.124204 85.468611 86.145129 85.540515 86.145129 C 85.581606 86.145129 85.622418 86.13467 85.663505 86.114124 C 85.704594 86.096144 85.741739 86.071556 85.775126 86.040743 C 85.808506 86.009928 85.836762 85.976444 85.859875 85.940491 C 85.882989 85.901975 85.898684 85.863779 85.906384 85.825252 C 85.914091 85.784165 85.921422 85.72871 85.929122 85.659371 C 85.936829 85.590034 85.944676 85.518356 85.952376 85.44388 C 85.960076 85.366837 85.967924 85.292542 85.975631 85.220638 C 85.985897 85.146165 85.997407 85.08548 86.010254 85.039254 C 86.033374 84.954508 86.060056 84.864521 86.090869 84.769503 C 86.121688 84.671915 86.156736 84.5746 86.195256 84.477014 C 86.233776 84.376859 86.276153 84.280594 86.32238 84.188143 C 86.368606 84.093125 86.417264 84.004188 86.468624 83.922009 C 86.52255 83.934843 86.571208 83.955768 86.614868 83.984021 C 86.658527 84.009701 86.706135 84.022262 86.757495 84.022262 C 86.924419 84.022262 87.085035 84.001853 87.239119 83.960767 C 87.393204 83.919678 87.547023 83.882532 87.701107 83.849146 C 87.806398 83.826032 87.905279 83.804063 87.997729 83.783516 C 88.09018 83.760403 88.179116 83.739995 88.263863 83.722021 C 88.351177 83.701475 88.435932 83.683168 88.518111 83.667761 C 88.60029 83.652355 88.683479 83.640845 88.768225 83.633138 C 88.827292 83.627998 88.882746 83.623285 88.934106 83.618152 C 88.988036 83.610452 89.033029 83.602604 89.068982 83.594897 C 89.048442 83.679644 89.027517 83.764399 89.00697 83.849146 C 88.98899 83.931324 88.970156 84.010849 88.949609 84.087891 C 88.931629 84.16236 88.91489 84.231423 88.899483 84.29563 C 88.884077 84.35983 88.870999 84.415285 88.860726 84.461511 C 88.850453 84.502603 88.832662 84.559106 88.806982 84.63101 C 88.781302 84.702915 88.750435 84.781391 88.714482 84.866138 C 88.678532 84.950884 88.641387 85.039304 88.602861 85.131755 C 88.564343 85.224205 88.528243 85.312625 88.494857 85.397371 C 88.464043 85.482117 88.438406 85.559543 88.417859 85.628882 C 88.397312 85.695647 88.386853 85.747968 88.386853 85.786495 C 88.386853 85.830149 88.393127 85.874093 88.405973 85.917753 C 88.42138 85.961408 88.442305 85.999605 88.467985 86.032992 C 88.496238 86.066378 88.530768 86.093577 88.571855 86.114124 C 88.61294 86.13467 88.660548 86.145129 88.714482 86.145129 C 88.804369 86.145129 88.877613 86.12839 88.934106 86.095003 C 88.990604 86.059054 89.036646 86.014061 89.072599 85.960128 C 89.108546 85.903632 89.136802 85.840848 89.157349 85.771509 C 89.177902 85.702168 89.197253 85.634155 89.215226 85.567387 L 89.211092 85.571004 C 89.229065 85.532483 89.249991 85.482259 89.273104 85.420626 C 89.298784 85.35899 89.324422 85.292542 89.350102 85.220638 C 89.378355 85.146165 89.405037 85.071355 89.430717 84.996879 C 89.458964 84.919842 89.483551 84.849212 89.504097 84.785006 C 89.527204 84.718237 89.544994 84.661734 89.557841 84.615507 C 89.573254 84.56928 89.583714 84.538413 89.588847 84.523006 L 89.723722 83.999524 C 89.754537 83.868552 89.788021 83.722063 89.823975 83.560274 C 89.862501 83.398486 89.897031 83.230024 89.927844 83.055396 C 89.961231 82.880767 89.98843 82.702361 90.008976 82.520028 C 90.03209 82.337694 90.043599 82.160337 90.043599 81.988277 C 90.043599 81.793103 90.025293 81.608418 89.989339 81.433789 C 89.955955 81.259161 89.896836 81.106391 89.812089 80.975419 C 89.727342 80.844448 89.613286 80.740336 89.469474 80.663293 C 89.32823 80.586251 89.150873 80.547538 88.937724 80.547538 z M 69.172522 80.582678 C 69.051823 80.582678 68.932536 80.587391 68.814404 80.597664 C 68.696273 80.607938 68.571756 80.624677 68.440784 80.647791 C 68.31238 80.668337 68.176352 80.695536 68.03254 80.728923 C 67.888728 80.762313 67.731777 80.802075 67.562284 80.848295 C 67.53404 80.858562 67.493228 80.870072 67.439294 80.882918 C 67.385369 80.895765 67.326251 80.908842 67.262044 80.921676 C 67.200411 80.934522 67.138676 80.947083 67.077043 80.959916 C 67.015414 80.97023 66.965191 80.976503 66.926664 80.979036 L 66.892041 80.821423 C 66.879194 80.793177 66.844665 80.762309 66.788171 80.728923 C 66.734242 80.692969 66.654717 80.674662 66.549426 80.674662 C 66.498065 80.674662 66.447841 80.695587 66.399048 80.736674 C 66.352825 80.775191 66.307832 80.826463 66.264172 80.89067 C 66.220514 80.952302 66.179702 81.020316 66.141182 81.094792 C 66.105228 81.169264 66.071744 81.240942 66.04093 81.310282 C 65.992134 81.425846 65.947141 81.543034 65.906055 81.661165 C 65.864966 81.779297 65.819973 81.920555 65.771179 82.084912 C 65.722391 82.2467 65.665887 82.441847 65.601681 82.670406 C 65.540047 82.896396 65.461571 83.174733 65.366553 83.506014 C 65.271535 83.837296 65.165324 84.171087 65.047192 84.507503 C 64.93163 84.841353 64.830133 85.182989 64.742818 85.532247 C 64.717138 85.632402 64.704061 85.727618 64.704061 85.817501 C 64.704061 85.986995 64.755335 86.107849 64.858057 86.179753 C 64.963348 86.254229 65.114019 86.291374 65.309192 86.291374 C 65.486389 86.291374 65.68625 86.272023 65.909672 86.233496 C 66.133095 86.194975 66.36329 86.134807 66.599552 86.052629 C 66.69457 86.019246 66.802347 85.980533 66.923047 85.936873 C 67.043746 85.890652 67.167215 85.840428 67.29305 85.786495 C 67.418886 85.729997 67.541837 85.670878 67.662537 85.609245 C 67.783236 85.547609 67.892579 85.483776 67.990165 85.417008 C 68.087747 85.350236 68.168321 85.280656 68.232528 85.208752 C 68.29673 85.136848 68.334392 85.063604 68.344666 84.989128 C 68.349806 84.953174 68.341958 84.923874 68.321411 84.900761 C 68.303431 84.877654 68.278844 84.859347 68.248031 84.846501 C 68.217216 84.831087 68.183732 84.821145 68.147778 84.816012 C 68.114392 84.810878 68.085092 84.80826 68.059412 84.80826 C 67.938712 84.810833 67.826755 84.832802 67.724032 84.873889 C 67.623877 84.912408 67.520281 84.961067 67.412423 85.020133 C 67.307131 85.076633 67.194124 85.138367 67.073425 85.205135 C 66.952725 85.271909 66.811467 85.333127 66.649679 85.38962 C 66.480185 85.448685 66.30806 85.496294 66.133431 85.532247 C 65.96137 85.5682 65.813831 85.586507 65.690564 85.586507 L 65.648189 85.586507 C 65.630216 85.586507 65.611909 85.582322 65.593929 85.574622 C 65.575949 85.566915 65.56077 85.552794 65.547937 85.532247 C 65.53509 85.509134 65.5283 85.474604 65.5283 85.428377 C 65.5283 85.389856 65.537708 85.320276 65.555688 85.220121 C 65.576228 85.119967 65.600299 85.01219 65.628552 84.896627 C 65.656806 84.778495 65.686622 84.665488 65.717436 84.557629 C 65.748256 84.447205 65.774938 84.365066 65.798051 84.311133 C 65.893066 84.288026 65.967877 84.270236 66.02181 84.257389 C 66.075737 84.244556 66.124394 84.231479 66.168054 84.218632 C 66.214281 84.203225 66.262939 84.185435 66.314299 84.164889 C 66.368228 84.144349 66.444088 84.115048 66.541675 84.076522 C 66.639262 84.035432 66.766395 83.983643 66.923047 83.922009 C 67.082268 83.857807 67.287876 83.777234 67.539547 83.679647 C 67.578068 83.666813 67.640852 83.645888 67.728166 83.617635 C 67.815481 83.589382 67.906516 83.560082 68.001534 83.529268 C 68.099121 83.498455 68.189107 83.469155 68.271285 83.440902 C 68.356034 83.410082 68.413588 83.386545 68.444401 83.371139 C 68.541984 83.319779 68.623074 83.25961 68.68728 83.190271 C 68.754048 83.120933 68.787533 83.039842 68.787533 82.947392 C 68.787533 82.911438 68.771837 82.879527 68.741024 82.851274 C 68.710207 82.82046 68.65004 82.805282 68.560156 82.805282 C 68.501091 82.805282 68.404824 82.823072 68.271285 82.859025 C 68.137745 82.892411 67.984976 82.934789 67.812915 82.986149 C 67.643423 83.037509 67.465017 83.092964 67.277547 83.15203 C 67.092646 83.211098 66.917904 83.266035 66.753548 83.317395 C 66.591759 83.368756 66.449451 83.412183 66.326184 83.448136 C 66.20549 83.481523 66.125449 83.498263 66.086922 83.498263 C 66.079216 83.498263 66.075553 83.490932 66.075553 83.475525 C 66.075553 83.465258 66.076637 83.449563 66.079171 83.429016 C 66.081744 83.408469 66.086974 83.38545 66.094674 83.35977 C 66.102374 83.331522 66.115451 83.288095 66.133431 83.229028 C 66.153978 83.16996 66.176997 83.104045 66.202677 83.032141 C 66.228357 82.960235 66.255039 82.884892 66.283293 82.805282 C 66.311539 82.725674 66.337694 82.650862 66.360807 82.581523 C 66.386487 82.50962 66.409507 82.446837 66.430054 82.392904 C 66.450594 82.336407 66.465772 82.296644 66.476046 82.273531 C 66.527407 82.147696 66.596987 82.034689 66.684302 81.934534 C 66.774184 81.831811 66.897136 81.74967 67.053788 81.688037 C 67.102582 81.672624 67.166931 81.653273 67.246541 81.63016 C 67.326151 81.60448 67.411956 81.578842 67.504407 81.553162 C 67.599425 81.524922 67.694642 81.496666 67.789661 81.468412 C 67.887248 81.440166 67.977234 81.415578 68.059412 81.395032 C 68.141594 81.371918 68.210658 81.353078 68.267151 81.337671 C 68.32622 81.319658 68.363882 81.309198 68.379289 81.306665 L 68.375155 81.306665 C 68.408539 81.298958 68.469224 81.287448 68.556539 81.272042 C 68.643854 81.256635 68.735939 81.24094 68.833525 81.225533 C 68.931112 81.207566 69.021098 81.192388 69.103276 81.179541 C 69.188021 81.164128 69.241909 81.153668 69.265023 81.148535 C 69.357474 81.140835 69.434383 81.125656 69.496016 81.102543 C 69.557644 81.079423 69.607868 81.052224 69.646395 81.021411 C 69.684922 80.990591 69.71212 80.95868 69.727527 80.925293 C 69.745507 80.889338 69.754399 80.855854 69.754399 80.825041 C 69.754399 80.791661 69.745507 80.760793 69.727527 80.73254 C 69.71212 80.701727 69.682303 80.676089 69.638643 80.655542 C 69.594987 80.632435 69.535869 80.614645 69.461393 80.601799 C 69.386919 80.588965 69.290653 80.582678 69.172522 80.582678 z M 92.2507 80.60955 C 92.181362 80.60955 92.104452 80.61478 92.019706 80.625053 C 91.934962 80.635326 91.85492 80.653116 91.780444 80.678796 C 91.708537 80.701916 91.647319 80.733828 91.595959 80.774915 C 91.547166 80.813435 91.522579 80.862609 91.522579 80.921676 C 91.522579 80.957626 91.528859 80.993209 91.541699 81.029163 C 91.554539 81.065113 91.570235 81.101213 91.588208 81.137166 C 91.606181 81.17056 91.623971 81.202471 91.641951 81.233285 C 91.662491 81.261531 91.679231 81.285068 91.692078 81.303048 C 91.72033 81.331301 91.762708 81.352753 91.819202 81.36816 C 91.875704 81.383567 91.932207 81.395077 91.9887 81.402783 C 92.047764 81.40795 92.100604 81.412135 92.14683 81.414669 L 92.235197 81.414669 L 91.271948 85.312622 C 91.135841 85.325462 91.006609 85.343769 90.883341 85.366882 C 90.762643 85.387427 90.642839 85.439749 90.524707 85.524495 C 90.457934 85.573293 90.409276 85.626132 90.378463 85.682625 C 90.350209 85.736557 90.336088 85.789395 90.336088 85.840755 C 90.336088 85.87671 90.346547 85.909677 90.367094 85.940491 C 90.387635 85.971304 90.420603 85.99956 90.466829 86.02524 C 90.515623 86.048353 90.578923 86.067711 90.655965 86.083118 C 90.733007 86.095964 90.827707 86.102755 90.940702 86.102755 C 91.043426 86.102755 91.152768 86.098569 91.268331 86.090869 C 91.386463 86.080596 91.504701 86.068035 91.622831 86.052629 C 91.740963 86.037215 91.857635 86.017864 91.973197 85.994751 C 92.08876 85.971631 92.196537 85.944432 92.296692 85.913619 L 92.293075 85.913619 C 92.516497 85.85712 92.746175 85.793287 92.982438 85.721383 C 93.218701 85.649477 93.450995 85.564722 93.679553 85.467135 C 93.908112 85.369548 94.129413 85.254975 94.342562 85.124003 C 94.555712 84.993032 94.750858 84.839213 94.928056 84.662016 C 95.107821 84.482252 95.264255 84.277692 95.397795 84.049133 C 95.533901 83.818007 95.639062 83.553796 95.713538 83.2559 C 95.726378 83.196833 95.736837 83.126205 95.744543 83.044027 C 95.752243 82.96185 95.755912 82.883375 95.755912 82.808899 C 95.755912 82.670224 95.740734 82.539426 95.70992 82.416158 C 95.679102 82.290323 95.637774 82.173134 95.586414 82.065275 C 95.537618 81.954847 95.480066 81.853868 95.413298 81.761418 C 95.349094 81.668968 95.28108 81.585263 95.209176 81.510787 C 95.01657 81.313046 94.813577 81.155045 94.600427 81.036914 C 94.389845 80.918787 94.163832 80.827752 93.922432 80.763546 C 93.683602 80.699348 93.425671 80.658019 93.148319 80.640039 C 92.873535 80.619492 92.574277 80.60955 92.2507 80.60955 z M 56.84976 80.667428 C 56.77272 80.667428 56.699474 80.676319 56.630135 80.694299 C 56.560796 80.712281 56.484937 80.749427 56.402759 80.80592 C 56.228129 80.942028 56.053905 81.092182 55.879277 81.256539 C 55.707215 81.418327 55.538754 81.591502 55.374398 81.776404 C 55.21261 81.958737 55.058274 82.14917 54.911894 82.346912 C 54.768082 82.542085 54.637285 82.740896 54.519153 82.943774 C 54.401022 83.146652 54.298477 83.349646 54.211161 83.552523 C 54.123849 83.752833 54.056883 83.949029 54.010657 84.141634 C 53.984963 84.244357 53.965612 84.345854 53.952779 84.446008 C 53.942506 84.543596 53.937793 84.641428 53.937793 84.739014 C 53.937793 84.967572 53.972323 85.175279 54.041663 85.362748 C 54.113569 85.550217 54.216115 85.712399 54.349654 85.848507 C 54.485762 85.984613 54.650042 86.089774 54.842647 86.16425 C 55.037821 86.238725 55.257555 86.275871 55.501522 86.275871 C 55.763465 86.275871 56.021395 86.238725 56.275635 86.16425 C 56.529873 86.092344 56.774195 85.990847 57.00789 85.859875 C 57.241584 85.728903 57.460802 85.572469 57.666248 85.390137 C 57.874262 85.207803 58.06208 85.00586 58.229004 84.785006 C 58.398497 84.564152 58.54447 84.328192 58.667737 84.076522 C 58.793575 83.82485 58.890357 83.565354 58.957125 83.298275 C 59.034168 82.995242 59.072363 82.712725 59.072363 82.450781 C 59.072363 82.158021 59.021091 81.884399 58.918368 81.63016 C 58.818213 81.375921 58.670674 81.157752 58.4755 80.975419 C 58.393322 80.898374 58.298106 80.839256 58.190247 80.798169 C 58.082388 80.754509 57.970947 80.73254 57.855383 80.73254 C 57.793749 80.73254 57.732015 80.736725 57.670382 80.744425 C 57.611319 80.749559 57.560046 80.762119 57.516386 80.782666 C 57.498419 80.790366 57.482724 80.803443 57.469877 80.821423 C 57.457037 80.83683 57.445527 80.852009 57.435254 80.867415 C 57.427547 80.882835 57.4197 80.896957 57.412 80.90979 C 57.404286 80.920063 57.398013 80.925293 57.392879 80.925293 C 57.372333 80.925293 57.350363 80.916401 57.32725 80.898421 C 57.304137 80.880448 57.282685 80.86004 57.262138 80.836926 C 57.197941 80.772725 57.133591 80.728781 57.069385 80.705668 C 57.005182 80.679988 56.931938 80.667428 56.84976 80.667428 z M 82.608911 80.667428 C 82.53187 80.667428 82.458626 80.676319 82.389286 80.694299 C 82.319949 80.712282 82.244088 80.749427 82.16191 80.80592 C 81.987281 80.942028 81.81254 81.092182 81.637911 81.256539 C 81.465851 81.418328 81.297906 81.591503 81.133549 81.776404 C 80.97176 81.958737 80.817424 82.14917 80.671045 82.346912 C 80.527232 82.542085 80.396435 82.740897 80.278304 82.943774 C 80.160172 83.146652 80.057626 83.349645 79.970312 83.552523 C 79.882999 83.752833 79.816035 83.949029 79.769808 84.141634 C 79.744121 84.244357 79.724764 84.345853 79.71193 84.446008 C 79.701657 84.543595 79.696427 84.641428 79.696427 84.739014 C 79.696427 84.967572 79.731474 85.175279 79.800814 85.362748 C 79.87272 85.550218 79.975265 85.712399 80.108805 85.848507 C 80.244913 85.984613 80.409193 86.089774 80.601799 86.16425 C 80.796973 86.238726 81.016706 86.275871 81.260673 86.275871 C 81.522616 86.275871 81.780547 86.238726 82.034786 86.16425 C 82.289025 86.092344 82.53283 85.990847 82.766524 85.859875 C 83.000219 85.728904 83.219953 85.57247 83.425399 85.390137 C 83.633412 85.207803 83.820714 85.00586 83.987638 84.785006 C 84.157131 84.564152 84.303621 84.328192 84.426888 84.076522 C 84.552725 83.82485 84.648991 83.565354 84.715759 83.298275 C 84.792801 82.995242 84.831514 82.712725 84.831514 82.450781 C 84.831514 82.158021 84.780241 81.884399 84.677519 81.63016 C 84.577363 81.375922 84.429825 81.157752 84.234652 80.975419 C 84.152473 80.898374 84.057256 80.839256 83.949398 80.798169 C 83.841538 80.754509 83.72958 80.73254 83.614018 80.73254 C 83.552384 80.73254 83.491166 80.736725 83.429533 80.744425 C 83.37047 80.749559 83.31868 80.762119 83.27502 80.782666 C 83.257047 80.790366 83.241868 80.803443 83.229028 80.821423 C 83.216188 80.83683 83.204678 80.852009 83.194405 80.867415 C 83.186705 80.882829 83.178857 80.89695 83.171151 80.90979 C 83.163437 80.920063 83.157164 80.925293 83.15203 80.925293 C 83.131484 80.925293 83.109515 80.916401 83.086401 80.898421 C 83.063288 80.880448 83.041319 80.86004 83.020772 80.836926 C 82.956575 80.772726 82.892743 80.728781 82.828536 80.705668 C 82.764334 80.679988 82.691089 80.667428 82.608911 80.667428 z M 72.551127 81.102543 C 72.65385 81.102543 72.764241 81.107773 72.882373 81.118046 C 73.003072 81.125746 73.113464 81.143536 73.213619 81.17179 C 73.313776 81.200043 73.396965 81.24242 73.463733 81.298914 C 73.530501 81.352843 73.563985 81.427137 73.563985 81.522156 C 73.563985 81.619742 73.524223 81.721239 73.444613 81.82653 C 73.365002 81.929253 73.26089 82.033364 73.132487 82.138656 C 73.006651 82.241378 72.862777 82.342874 72.700989 82.44303 C 72.541768 82.540616 72.38167 82.631652 72.219881 82.716398 C 72.060661 82.801147 71.907892 82.877006 71.761511 82.943774 C 71.615132 83.007976 71.491663 83.058199 71.391508 83.094153 C 71.263105 83.140374 71.147482 83.190081 71.044759 83.244014 C 70.942035 83.295378 70.865125 83.354497 70.813765 83.421265 C 70.844578 83.315974 70.879108 83.196687 70.917635 83.063147 C 70.956159 82.929608 70.995921 82.79253 71.037008 82.651286 C 71.078099 82.507474 71.119428 82.364649 71.160514 82.223405 C 71.201603 82.08216 71.239799 81.949797 71.275753 81.82653 C 71.311706 81.703263 71.344134 81.592871 71.372388 81.495284 C 71.403208 81.397696 71.426227 81.323402 71.441634 81.272042 C 71.626535 81.205273 71.811222 81.16028 71.996122 81.137166 C 72.181024 81.114053 72.366226 81.102543 72.551127 81.102543 z M 57.443005 81.322168 C 57.625339 81.322168 57.779157 81.354079 57.904993 81.418286 C 58.030828 81.479919 58.132325 81.563625 58.209367 81.668917 C 58.286408 81.774207 58.341862 81.894543 58.375248 82.030652 C 58.408635 82.166759 58.425374 82.309585 58.425374 82.458533 C 58.425374 82.550983 58.419094 82.647249 58.406254 82.747404 C 58.395981 82.847559 58.377674 82.943825 58.351994 83.036275 C 58.285224 83.290515 58.196804 83.530655 58.086377 83.756645 C 57.978518 83.982635 57.854001 84.191908 57.712756 84.384513 C 57.574081 84.577119 57.42236 84.749245 57.258004 84.900761 C 57.093646 85.052278 56.923086 85.182026 56.74589 85.289884 C 56.568693 85.397748 56.386106 85.479888 56.198637 85.536381 C 56.013736 85.592874 55.831666 85.62113 55.6519 85.62113 C 55.500384 85.62113 55.360174 85.602823 55.231771 85.56687 C 55.105935 85.528347 54.997109 85.47341 54.904659 85.401506 C 54.814776 85.327032 54.744146 85.235996 54.692786 85.128137 C 54.643992 85.01771 54.619405 84.890576 54.619405 84.746765 C 54.619405 84.644042 54.633526 84.52842 54.66178 84.400016 C 54.710573 84.186866 54.789049 83.966082 54.896908 83.737524 C 55.007335 83.506398 55.135517 83.277768 55.281897 83.051778 C 55.428277 82.825787 55.587327 82.60762 55.759387 82.397038 C 55.934016 82.183888 56.108757 81.987174 56.283386 81.80741 C 56.303926 81.78429 56.332182 81.757091 56.368136 81.726278 C 56.406651 81.695464 56.445364 81.666164 56.483891 81.637911 C 56.524979 81.609664 56.563176 81.585077 56.599129 81.56453 C 56.637649 81.543984 56.668517 81.534041 56.69163 81.534041 C 56.70447 81.534041 56.71598 81.539271 56.726253 81.549544 C 56.736527 81.557251 56.749604 81.568761 56.765011 81.584167 C 56.798392 81.617554 56.831876 81.644236 56.865263 81.664783 C 56.898645 81.682763 56.936841 81.691654 56.980501 81.691654 C 57.039567 81.691654 57.088742 81.684323 57.127262 81.668917 C 57.16835 81.653503 57.201318 81.634153 57.226998 81.611039 C 57.255251 81.585359 57.27722 81.557103 57.292627 81.52629 C 57.310594 81.495477 57.326289 81.46566 57.339136 81.437406 C 57.354549 81.40402 57.36867 81.377338 57.38151 81.356791 C 57.396917 81.333678 57.417325 81.322168 57.443005 81.322168 z M 83.202157 81.322168 C 83.38449 81.322168 83.538309 81.354079 83.664144 81.418286 C 83.78998 81.47992 83.891476 81.563626 83.968518 81.668917 C 84.045558 81.774207 84.101013 81.894543 84.134399 82.030652 C 84.167786 82.16676 84.184526 82.309585 84.184526 82.458533 C 84.184526 82.550983 84.177722 82.647249 84.164889 82.747404 C 84.154615 82.847559 84.136825 82.943825 84.111145 83.036275 C 84.044375 83.290515 83.955955 83.530655 83.845528 83.756645 C 83.737669 83.982635 83.613151 84.191908 83.471908 84.384513 C 83.333232 84.577119 83.181512 84.749246 83.017155 84.900761 C 82.852798 85.052278 82.682239 85.182026 82.505042 85.289884 C 82.327846 85.397748 82.145257 85.479888 81.957788 85.536381 C 81.772886 85.592874 81.590815 85.62113 81.411051 85.62113 C 81.259535 85.62113 81.119325 85.602823 80.990922 85.56687 C 80.865086 85.528347 80.755743 85.47341 80.663293 85.401506 C 80.573409 85.327031 80.50278 85.235996 80.45142 85.128137 C 80.402627 85.017711 80.378556 84.890577 80.378556 84.746765 C 80.378556 84.644042 80.392678 84.52842 80.420931 84.400016 C 80.469724 84.186866 80.547682 83.966083 80.655542 83.737524 C 80.765969 83.506398 80.894669 83.277768 81.041048 83.051778 C 81.187429 82.825787 81.346478 82.607619 81.518538 82.397038 C 81.693167 82.183888 81.867908 81.987175 82.042537 81.80741 C 82.063077 81.78429 82.091333 81.757091 82.127287 81.726278 C 82.165809 81.695464 82.204522 81.666164 82.243042 81.637911 C 82.284131 81.609664 82.322327 81.585077 82.35828 81.56453 C 82.3968 81.543984 82.427668 81.534041 82.450781 81.534041 C 82.463621 81.534041 82.475131 81.539271 82.485404 81.549544 C 82.495678 81.557251 82.508755 81.568761 82.524162 81.584167 C 82.557543 81.617554 82.591027 81.644236 82.624414 81.664783 C 82.657797 81.682763 82.695993 81.691654 82.739653 81.691654 C 82.798713 81.691654 82.84737 81.684323 82.885897 81.668917 C 82.926985 81.653503 82.960469 81.634153 82.986149 81.611039 C 83.014402 81.585359 83.036371 81.557103 83.051778 81.52629 C 83.069758 81.495477 83.084937 81.46566 83.09777 81.437406 C 83.113177 81.40402 83.127298 81.377338 83.140145 81.356791 C 83.155552 81.333678 83.176477 81.322168 83.202157 81.322168 z M 88.910852 81.322168 C 89.005873 81.322168 89.079117 81.34885 89.130477 81.402783 C 89.184407 81.454145 89.224169 81.518494 89.249849 81.595536 C 89.275529 81.672578 89.290708 81.754718 89.295841 81.842033 C 89.300975 81.926781 89.303593 82.002641 89.303593 82.069409 C 89.303593 82.151588 89.300975 82.232678 89.295841 82.312288 C 89.293275 82.389328 89.288562 82.462057 89.280855 82.531396 C 89.273149 82.600739 89.26374 82.664039 89.253467 82.720532 C 89.24576 82.777028 89.236868 82.822021 89.226595 82.855408 C 89.149554 82.870821 89.035497 82.893841 88.88398 82.924654 C 88.732464 82.952894 88.565569 82.98115 88.383236 83.009403 C 88.20347 83.03765 88.020883 83.061721 87.835982 83.082267 C 87.651081 83.102814 87.486801 83.113273 87.342989 83.113273 L 86.946114 83.113273 C 86.956387 83.087593 86.969465 83.059337 86.984871 83.028524 C 87.000278 82.995144 87.015457 82.964276 87.030863 82.936023 C 87.048843 82.905203 87.065583 82.878521 87.08099 82.855408 C 87.09897 82.829728 87.113091 82.808803 87.123364 82.793396 C 87.190135 82.700945 87.264945 82.601015 87.347123 82.493156 C 87.429301 82.382729 87.516155 82.273386 87.608606 82.165527 C 87.703625 82.057668 87.802506 81.952507 87.905229 81.849784 C 88.01052 81.747061 88.118813 81.657075 88.22924 81.580033 C 88.339667 81.502993 88.451108 81.441258 88.564103 81.395032 C 88.679667 81.346238 88.795289 81.322168 88.910852 81.322168 z M 93.105945 81.337671 C 93.242053 81.337671 93.385927 81.355461 93.537443 81.391414 C 93.691528 81.424802 93.842732 81.475025 93.991679 81.541793 C 94.140628 81.608563 94.283452 81.689137 94.41956 81.784155 C 94.558236 81.876607 94.678572 81.983334 94.781295 82.104032 C 94.886587 82.222164 94.970292 82.351912 95.031925 82.493156 C 95.093559 82.631833 95.124426 82.779371 95.124426 82.936023 C 95.124426 83.090107 95.091998 83.239212 95.027791 83.383024 C 94.966158 83.524268 94.882968 83.660297 94.777677 83.791268 C 94.672386 83.919672 94.550484 84.040525 94.411808 84.15352 C 94.273132 84.266516 94.127692 84.371677 93.976176 84.469263 C 93.824659 84.564282 93.670841 84.650086 93.514189 84.727128 C 93.360104 84.801598 93.213615 84.865948 93.074939 84.919881 C 92.936264 84.973805 92.8039 85.019847 92.678064 85.058374 C 92.552229 85.096901 92.440787 85.129329 92.343201 85.155009 C 92.248178 85.180696 92.172318 85.200047 92.115824 85.212887 L 92.026941 85.232007 C 92.057761 85.098468 92.090189 84.96244 92.123576 84.823763 C 92.156969 84.685088 92.188881 84.550109 92.219694 84.419137 C 92.345529 83.890114 92.476844 83.369022 92.612952 82.855408 C 92.749059 82.341793 92.913339 81.835877 93.105945 81.337671 z " />
  </g>
</svg>
